<svg xmlns="http://www.w3.org/2000/svg" viewBox="0 0 203.41 64.71"><defs><style>.cls-1{fill:#333;}.cls-2{fill:#695a9d;}.cls-3{fill:#55469d;}.cls-4{fill:#41329d;}.cls-5{fill:#2d1e9d;}.cls-6{fill:#fff;}</style></defs><title>Asset 1</title><g id="Layer_2" data-name="Layer 2"><g id="Layer_1-2" data-name="Layer 1"><path class="cls-1" d="M18.39,54.1h2.24a3.15,3.15,0,0,1,3.47,3.48,3.53,3.53,0,0,1-.91,2.58,3.44,3.44,0,0,1-2.56.91H18.39Zm2.21,6.44a2.83,2.83,0,0,0,2.14-.75,3.09,3.09,0,0,0,.71-2.21c0-2-.95-2.95-2.85-2.95H19v5.91Z"/><path class="cls-1" d="M26.24,54.14v.77h-.79v-.77Zm-.71,2h.59v4.9h-.59Z"/><path class="cls-1" d="M32,56.17v4.92a2.27,2.27,0,0,1-.52,1.62,2.11,2.11,0,0,1-1.56.54A3.44,3.44,0,0,1,28,62.73l.12-.52a3.92,3.92,0,0,0,.88.4,3.21,3.21,0,0,0,.92.12A1.44,1.44,0,0,0,31,62.32a1.63,1.63,0,0,0,.38-1.17V59.89a1.74,1.74,0,0,1-.67.77,2,2,0,0,1-1.06.26,2.16,2.16,0,0,1-1.14-.3,2.24,2.24,0,0,1-.78-.86,3,3,0,0,1,0-2.55,2.06,2.06,0,0,1,1.92-1.16,2.08,2.08,0,0,1,1.06.26,1.59,1.59,0,0,1,.66.74v-.88Zm-1,3.71a2.09,2.09,0,0,0,.44-1.39,2.12,2.12,0,0,0-.44-1.41,1.49,1.49,0,0,0-1.2-.51,1.51,1.51,0,0,0-1.21.51,2.12,2.12,0,0,0-.44,1.41,2.05,2.05,0,0,0,.44,1.39,1.51,1.51,0,0,0,1.21.51A1.49,1.49,0,0,0,30.93,59.88Z"/><path class="cls-1" d="M34.29,54.14v.77H33.5v-.77Zm-.7,2h.58v4.9h-.58Z"/><path class="cls-1" d="M36.65,56.65v2.91a1.15,1.15,0,0,0,.23.82.89.89,0,0,0,.66.22,1.6,1.6,0,0,0,.53-.09v.54a2.74,2.74,0,0,1-.64.08,1.39,1.39,0,0,1-1-.36,1.5,1.5,0,0,1-.37-1.09v-3h-1v-.48h1v-1.3l.6-.23v1.53H38.1v.48Z"/><path class="cls-1" d="M43.28,56.17v4.9h-.6v-.94a1.55,1.55,0,0,1-.65.75,2,2,0,0,1-1,.26,2.08,2.08,0,0,1-1.15-.31,2,2,0,0,1-.77-.88,3.11,3.11,0,0,1-.27-1.34,3.18,3.18,0,0,1,.28-1.34A2,2,0,0,1,41,56.05a2,2,0,0,1,1,.26,1.59,1.59,0,0,1,.66.74v-.88Zm-1,3.91a2.31,2.31,0,0,0,.42-1.48,2.35,2.35,0,0,0-.42-1.5,1.61,1.61,0,0,0-2.4,0,2.37,2.37,0,0,0-.43,1.5,2.25,2.25,0,0,0,.43,1.48,1.48,1.48,0,0,0,1.21.52A1.42,1.42,0,0,0,42.26,60.08Z"/><path class="cls-1" d="M44.9,53.87h.59v7.2H44.9Z"/><path class="cls-1" d="M49.71,54.1H54v.52h-3.7v2.64h3.5v.54h-3.5v2.75H54v.52h-4.3Z"/><path class="cls-1" d="M59.58,56.17a11.54,11.54,0,0,0-.07,1.36v5.66h-.6V60.13a1.55,1.55,0,0,1-.65.75,2,2,0,0,1-1,.26,2.08,2.08,0,0,1-1.15-.31,2,2,0,0,1-.76-.88A3.11,3.11,0,0,1,55,58.61a3.18,3.18,0,0,1,.27-1.34,2.13,2.13,0,0,1,.77-.9,2.08,2.08,0,0,1,1.14-.32,1.94,1.94,0,0,1,1.07.28,1.62,1.62,0,0,1,.65.78l.09-.94Zm-1.09,3.91a2.31,2.31,0,0,0,.42-1.48,2.35,2.35,0,0,0-.42-1.5,1.6,1.6,0,0,0-2.39,0,2.37,2.37,0,0,0-.43,1.5,2.25,2.25,0,0,0,.43,1.48,1.46,1.46,0,0,0,1.21.52A1.4,1.4,0,0,0,58.49,60.08Z"/><path class="cls-1" d="M65.08,56.17v4.9H64.5v-.89a1.77,1.77,0,0,1-.66.72,2,2,0,0,1-1,.24,1.66,1.66,0,0,1-1.3-.48,2,2,0,0,1-.44-1.42V56.17h.58v3a1.59,1.59,0,0,0,.3,1.07,1.12,1.12,0,0,0,.91.34,1.52,1.52,0,0,0,1.15-.45A1.69,1.69,0,0,0,64.48,59V56.17Z"/><path class="cls-1" d="M70.86,56.17v4.9h-.59v-.94a1.62,1.62,0,0,1-.66.75,2,2,0,0,1-1,.26,2.11,2.11,0,0,1-1.15-.31,2,2,0,0,1-.76-.88,3.11,3.11,0,0,1-.27-1.34,3.18,3.18,0,0,1,.27-1.34,2.13,2.13,0,0,1,.77-.9,2.08,2.08,0,0,1,1.14-.32,2,2,0,0,1,1,.26,1.56,1.56,0,0,1,.67.74v-.88Zm-1,3.91a2.31,2.31,0,0,0,.43-1.48,2.35,2.35,0,0,0-.43-1.5,1.6,1.6,0,0,0-2.39,0,2.37,2.37,0,0,0-.43,1.5,2.25,2.25,0,0,0,.43,1.48,1.46,1.46,0,0,0,1.21.52A1.4,1.4,0,0,0,69.84,60.08Z"/><path class="cls-1" d="M72.49,53.87h.58v7.2h-.58Z"/><path class="cls-1" d="M75.42,54.14v.77h-.79v-.77Zm-.7,2h.59v4.9h-.59Z"/><path class="cls-1" d="M77.78,56.65v2.91a1.15,1.15,0,0,0,.23.82.89.89,0,0,0,.66.22,1.6,1.6,0,0,0,.53-.09v.54a2.74,2.74,0,0,1-.64.08,1.39,1.39,0,0,1-1-.36,1.5,1.5,0,0,1-.37-1.09v-3h-1v-.48h1v-1.3l.6-.23v1.53h1.45v.48Z"/><path class="cls-1" d="M84.45,56.17l-2.3,5.41a2.77,2.77,0,0,1-.86,1.18,3.16,3.16,0,0,1-1.29.53l-.12-.47A2.93,2.93,0,0,0,81,62.39a2,2,0,0,0,.6-.83l.2-.48-2.09-4.91h.64l1.77,4.3,1.78-4.3Z"/><path class="cls-1" d="M88,54.1h4.29v.52h-3.7v2.64h3.51v.54H88.61v2.75h3.7v.52H88Z"/><path class="cls-1" d="M97.71,58v3.12h-.6V58a1.62,1.62,0,0,0-.3-1.08,1.18,1.18,0,0,0-.94-.34,1.61,1.61,0,0,0-1.18.45,1.63,1.63,0,0,0-.45,1.21v2.84h-.59V57.53a11.09,11.09,0,0,0-.07-1.36h.56l.08.9a1.63,1.63,0,0,1,.68-.76,2,2,0,0,1,1-.26C97.11,56.05,97.71,56.68,97.71,58Z"/><path class="cls-1" d="M100.14,56.65v2.91a1.15,1.15,0,0,0,.23.82.89.89,0,0,0,.66.22,1.6,1.6,0,0,0,.53-.09v.54a2.74,2.74,0,0,1-.64.08,1.39,1.39,0,0,1-1-.36,1.5,1.5,0,0,1-.37-1.09v-3h-1v-.48h1v-1.3l.6-.23v1.53h1.45v.48Z"/><path class="cls-1" d="M105.15,56.09l0,.54a1.92,1.92,0,0,0-.45,0,1.34,1.34,0,0,0-1.11.47,1.85,1.85,0,0,0-.37,1.13v2.88h-.58V57.53a11,11,0,0,0-.08-1.36h.57l.08.91a1.43,1.43,0,0,1,.6-.76,1.67,1.67,0,0,1,.94-.27A1.85,1.85,0,0,1,105.15,56.09Z"/><path class="cls-1" d="M106.24,58.55v0a2.25,2.25,0,0,0,.45,1.51,1.68,1.68,0,0,0,1.33.52,2.44,2.44,0,0,0,1.61-.61l.24.47a2.3,2.3,0,0,1-.82.49,3.06,3.06,0,0,1-1,.18,2.33,2.33,0,0,1-1.76-.68,2.58,2.58,0,0,1-.65-1.85,3,3,0,0,1,.29-1.34,2.09,2.09,0,0,1,.81-.9,2.23,2.23,0,0,1,1.19-.32,1.88,1.88,0,0,1,1.51.63,2.52,2.52,0,0,1,.55,1.74v.13Zm.57-1.6a1.91,1.91,0,0,0-.53,1.14h3.11a1.81,1.81,0,0,0-.44-1.15,1.37,1.37,0,0,0-1-.4A1.5,1.5,0,0,0,106.81,57Z"/><path class="cls-1" d="M114.67,56.37a2.13,2.13,0,0,1,.77.9,3.18,3.18,0,0,1,.27,1.34,3.11,3.11,0,0,1-.27,1.34,2,2,0,0,1-1.91,1.19,2,2,0,0,1-1-.27,1.62,1.62,0,0,1-.65-.78v3.1h-.59V57.53a11,11,0,0,0-.08-1.36h.57l.08,1a1.63,1.63,0,0,1,.66-.8,1.91,1.91,0,0,1,1.06-.28A2.08,2.08,0,0,1,114.67,56.37Zm0,3.72a2.25,2.25,0,0,0,.43-1.48,2.37,2.37,0,0,0-.43-1.5,1.42,1.42,0,0,0-1.19-.54,1.45,1.45,0,0,0-1.2.53,2.35,2.35,0,0,0-.42,1.5,2.31,2.31,0,0,0,.42,1.48,1.42,1.42,0,0,0,1.19.53A1.44,1.44,0,0,0,114.65,60.09Z"/><path class="cls-1" d="M119.57,56.09l0,.54a2,2,0,0,0-.45,0,1.32,1.32,0,0,0-1.11.47,1.78,1.78,0,0,0-.37,1.13v2.88H117V57.53a9.3,9.3,0,0,0-.08-1.36h.57l.08.91a1.43,1.43,0,0,1,.6-.76,1.7,1.7,0,0,1,1-.27A1.91,1.91,0,0,1,119.57,56.09Z"/><path class="cls-1" d="M120.65,58.55v0a2.2,2.2,0,0,0,.46,1.51,1.64,1.64,0,0,0,1.32.52,2.46,2.46,0,0,0,1.62-.61l.23.47a2.21,2.21,0,0,1-.82.49,3,3,0,0,1-1,.18,2.33,2.33,0,0,1-1.76-.68,2.57,2.57,0,0,1-.64-1.85,2.87,2.87,0,0,1,.29-1.34,2.13,2.13,0,0,1,.8-.9,2.29,2.29,0,0,1,1.2-.32,1.89,1.89,0,0,1,1.51.63,2.57,2.57,0,0,1,.54,1.74v.13Zm.57-1.6a1.91,1.91,0,0,0-.53,1.14h3.11a1.71,1.71,0,0,0-.44-1.15,1.35,1.35,0,0,0-1-.4A1.53,1.53,0,0,0,121.22,57Z"/><path class="cls-1" d="M129.71,58v3.12h-.6V58a1.62,1.62,0,0,0-.3-1.08,1.17,1.17,0,0,0-.93-.34,1.55,1.55,0,0,0-1.64,1.66v2.84h-.59V57.53a11.09,11.09,0,0,0-.07-1.36h.56l.08.9a1.63,1.63,0,0,1,.68-.76,2,2,0,0,1,1-.26C129.11,56.05,129.71,56.68,129.71,58Z"/><path class="cls-1" d="M131.62,58.55v0a2.2,2.2,0,0,0,.46,1.51,1.64,1.64,0,0,0,1.32.52A2.46,2.46,0,0,0,135,60l.23.47a2.21,2.21,0,0,1-.82.49,3,3,0,0,1-1,.18,2.33,2.33,0,0,1-1.76-.68,2.57,2.57,0,0,1-.64-1.85,2.87,2.87,0,0,1,.29-1.34,2.13,2.13,0,0,1,.8-.9,2.29,2.29,0,0,1,1.2-.32,1.89,1.89,0,0,1,1.51.63,2.57,2.57,0,0,1,.54,1.74v.13Zm.57-1.6a1.91,1.91,0,0,0-.53,1.14h3.11a1.71,1.71,0,0,0-.44-1.15,1.35,1.35,0,0,0-1-.4A1.53,1.53,0,0,0,132.19,57Z"/><path class="cls-1" d="M140.57,56.17v4.9H140v-.89a1.77,1.77,0,0,1-.66.72,2,2,0,0,1-1,.24,1.66,1.66,0,0,1-1.3-.48,2,2,0,0,1-.45-1.42V56.17h.59v3a1.59,1.59,0,0,0,.3,1.07,1.11,1.11,0,0,0,.91.34,1.52,1.52,0,0,0,1.15-.45A1.69,1.69,0,0,0,140,59V56.17Z"/><path class="cls-1" d="M144.74,56.09l0,.54a2,2,0,0,0-.45,0,1.32,1.32,0,0,0-1.11.47,1.78,1.78,0,0,0-.37,1.13v2.88h-.59V57.53a9.3,9.3,0,0,0-.08-1.36h.57l.08.91a1.43,1.43,0,0,1,.6-.76,1.7,1.7,0,0,1,.95-.27A1.91,1.91,0,0,1,144.74,56.09Z"/><path class="cls-1" d="M145.27,60.48l.21-.46a2.39,2.39,0,0,0,.79.46,2.56,2.56,0,0,0,.91.14,1.68,1.68,0,0,0,.93-.21.69.69,0,0,0,.32-.61.66.66,0,0,0-.21-.52,1.59,1.59,0,0,0-.69-.31l-.84-.19a1.74,1.74,0,0,1-.92-.49,1.13,1.13,0,0,1-.34-.82,1.25,1.25,0,0,1,.5-1,2,2,0,0,1,1.31-.39,2.78,2.78,0,0,1,1,.17,1.86,1.86,0,0,1,.73.48l-.22.46a2.21,2.21,0,0,0-1.48-.59,1.42,1.42,0,0,0-.88.23.7.7,0,0,0-.31.62.72.72,0,0,0,.2.54,1.16,1.16,0,0,0,.62.3l.84.21c.88.19,1.32.63,1.32,1.3a1.17,1.17,0,0,1-.51,1,2.25,2.25,0,0,1-1.37.38A2.61,2.61,0,0,1,145.27,60.48Z"/><path class="cls-1" d="M154.44,58v3.12h-.59V58a1.62,1.62,0,0,0-.3-1.08,1.18,1.18,0,0,0-.94-.34,1.59,1.59,0,0,0-1.18.45,1.63,1.63,0,0,0-.45,1.21v2.84h-.59v-7.2H151V57a1.58,1.58,0,0,1,.68-.72,2,2,0,0,1,1-.25C153.85,56.05,154.44,56.68,154.44,58Z"/><path class="cls-1" d="M156.75,54.14v.77H156v-.77Zm-.7,2h.59v4.9h-.59Z"/><path class="cls-1" d="M161.71,56.37a2.07,2.07,0,0,1,.77.9,3.18,3.18,0,0,1,.27,1.34,3.11,3.11,0,0,1-.27,1.34,2.11,2.11,0,0,1-.76.88,2.13,2.13,0,0,1-1.15.31,2,2,0,0,1-1-.27,1.62,1.62,0,0,1-.65-.78v3.1h-.59V57.53a11,11,0,0,0-.08-1.36h.57l.08,1a1.63,1.63,0,0,1,.66-.8,1.93,1.93,0,0,1,1.06-.28A2.08,2.08,0,0,1,161.71,56.37Zm0,3.72a2.31,2.31,0,0,0,.43-1.48,2.43,2.43,0,0,0-.43-1.5,1.61,1.61,0,0,0-2.4,0,2.35,2.35,0,0,0-.42,1.5,2.31,2.31,0,0,0,.42,1.48,1.42,1.42,0,0,0,1.19.53A1.48,1.48,0,0,0,161.7,60.09Z"/><path class="cls-1" d="M166.65,54.1h2.68a2.44,2.44,0,0,1,1.64.51,1.74,1.74,0,0,1,.6,1.4,1.79,1.79,0,0,1-.6,1.42,2.46,2.46,0,0,1-1.64.51h-2.08v3.13h-.6Zm2.64,3.31a1.85,1.85,0,0,0,1.24-.36,1.49,1.49,0,0,0,0-2.07,1.85,1.85,0,0,0-1.24-.36h-2v2.79Z"/><path class="cls-1" d="M175.31,56.09l0,.54a2,2,0,0,0-.45,0,1.32,1.32,0,0,0-1.11.47,1.78,1.78,0,0,0-.37,1.13v2.88h-.59V57.53a11.09,11.09,0,0,0-.07-1.36h.56l.08.91a1.53,1.53,0,0,1,.6-.76,1.7,1.7,0,0,1,.95-.27A1.91,1.91,0,0,1,175.31,56.09Z"/><path class="cls-1" d="M176.84,60.83a2.07,2.07,0,0,1-.79-.89,3,3,0,0,1-.28-1.34,3,3,0,0,1,.28-1.34,2,2,0,0,1,.79-.9,2.32,2.32,0,0,1,1.19-.31,2.27,2.27,0,0,1,1.17.31,2.11,2.11,0,0,1,.79.9,3,3,0,0,1,.28,1.34,3,3,0,0,1-.28,1.34,2.14,2.14,0,0,1-.79.89,2.18,2.18,0,0,1-1.17.31A2.22,2.22,0,0,1,176.84,60.83Zm2.39-.74a2.84,2.84,0,0,0,0-3,1.61,1.61,0,0,0-2.39,0,2.33,2.33,0,0,0-.44,1.5,2.24,2.24,0,0,0,.43,1.49,1.44,1.44,0,0,0,1.2.52A1.48,1.48,0,0,0,179.23,60.09Z"/><path class="cls-1" d="M185.78,56.17v4.92a2.27,2.27,0,0,1-.53,1.62,2.08,2.08,0,0,1-1.56.54,3.4,3.4,0,0,1-1.9-.52l.11-.52a4.13,4.13,0,0,0,.88.4,3.26,3.26,0,0,0,.92.12,1.44,1.44,0,0,0,1.11-.41,1.59,1.59,0,0,0,.38-1.17V59.89a1.72,1.72,0,0,1-.66.77,2,2,0,0,1-1.06.26,2.22,2.22,0,0,1-1.15-.3,2.14,2.14,0,0,1-.77-.86,3,3,0,0,1,0-2.55,2.07,2.07,0,0,1,.77-.86,2.22,2.22,0,0,1,1.15-.3,2,2,0,0,1,1.05.26,1.59,1.59,0,0,1,.66.74v-.88Zm-1,3.71a2.08,2.08,0,0,0,.43-1.39,2.12,2.12,0,0,0-.43-1.41,1.49,1.49,0,0,0-1.2-.51,1.53,1.53,0,0,0-1.22.51,2.12,2.12,0,0,0-.44,1.41,2.05,2.05,0,0,0,.44,1.39,1.53,1.53,0,0,0,1.22.51A1.49,1.49,0,0,0,184.75,59.88Z"/><path class="cls-1" d="M190,56.09l0,.54a2,2,0,0,0-.45,0,1.32,1.32,0,0,0-1.11.47,1.78,1.78,0,0,0-.37,1.13v2.88h-.59V57.53a11.09,11.09,0,0,0-.07-1.36h.56l.08.91a1.53,1.53,0,0,1,.6-.76,1.73,1.73,0,0,1,1-.27A1.91,1.91,0,0,1,190,56.09Z"/><path class="cls-1" d="M194.88,56.17v4.9h-.6v-.94a1.55,1.55,0,0,1-.65.75,2,2,0,0,1-1,.26,2.08,2.08,0,0,1-1.15-.31,2,2,0,0,1-.76-.88,3.11,3.11,0,0,1-.27-1.34,3.18,3.18,0,0,1,.27-1.34,2,2,0,0,1,1.91-1.22,2,2,0,0,1,1,.26,1.59,1.59,0,0,1,.66.74v-.88Zm-1,3.91a2.31,2.31,0,0,0,.42-1.48,2.35,2.35,0,0,0-.42-1.5,1.44,1.44,0,0,0-1.19-.53,1.46,1.46,0,0,0-1.21.54,2.43,2.43,0,0,0-.43,1.5,2.31,2.31,0,0,0,.43,1.48,1.5,1.5,0,0,0,1.22.52A1.4,1.4,0,0,0,193.86,60.08Z"/><path class="cls-1" d="M203.41,58v3.12h-.59V58a1.71,1.71,0,0,0-.27-1.08,1,1,0,0,0-.84-.34,1.33,1.33,0,0,0-1.06.45,1.81,1.81,0,0,0-.39,1.22v2.83h-.59V58a1.71,1.71,0,0,0-.27-1.08,1,1,0,0,0-.85-.34,1.34,1.34,0,0,0-1.06.45,1.76,1.76,0,0,0-.4,1.22v2.83h-.59V57.53a11.09,11.09,0,0,0-.07-1.36H197l.08.88a1.55,1.55,0,0,1,.61-.74,1.76,1.76,0,0,1,.95-.26,1.44,1.44,0,0,1,1.52,1,1.5,1.5,0,0,1,.64-.7,1.93,1.93,0,0,1,1-.26C202.87,56.05,203.41,56.68,203.41,58Z"/><path class="cls-2" d="M0,0H18.58a29,29,0,0,1,13,2.71A19.23,19.23,0,0,1,40,10.54a24.2,24.2,0,0,1,2.9,12.13A24.74,24.74,0,0,1,40,34.9a19,19,0,0,1-8.34,7.86,29,29,0,0,1-13.06,2.71H0ZM17.75,35.89q6.65,0,9.93-3.29T31,22.67Q31,9.57,17.75,9.58H12V35.89Z"/><path class="cls-3" d="M47.21,45.47V0H79.65V9.2H58.89v8.55H78.31V27H58.89v9.32H79.65v9.2Z"/><path class="cls-4" d="M85.78,45.47V0h32.44V9.2H97.47v8.55h19.41V27H97.47v9.32h20.75v9.2Z"/><path class="cls-5" d="M124.35,0H146q7.8,0,12.07,3.74a12.75,12.75,0,0,1,4.28,10.12A12.7,12.7,0,0,1,158,24q-4.35,3.77-12,3.77h-9.64V45.47h-12Zm20.06,18.78q6.76,0,6.77-4.79a4.36,4.36,0,0,0-1.63-3.68q-1.63-1.24-5.14-1.24h-8v9.71Z"/><rect class="cls-2" y="53.03" width="12.02" height="9.2"/><polygon class="cls-6" points="4.09 50.55 13.34 57.63 4.09 64.71 4.09 50.55"/></g></g></svg>