<svg xmlns="http://www.w3.org/2000/svg" viewBox="0 0 226.11 70.36"><defs><style>.cls-1{fill:#fff;}</style></defs><title>Asset 6</title><g id="Layer_2" data-name="Layer 2"><g id="Layer_1-2" data-name="Layer 1"><path class="cls-1" d="M20.44,60.14h2.49a3.82,3.82,0,0,1,2.85,1,4.6,4.6,0,0,1,0,5.73,3.82,3.82,0,0,1-2.85,1H20.44ZM22.9,67.3a3.15,3.15,0,0,0,2.37-.83,3.46,3.46,0,0,0,.8-2.47q0-3.27-3.17-3.27H21.12V67.3Z"/><path class="cls-1" d="M29.17,60.18V61h-.88v-.85Zm-.79,2.26H29v5.45h-.66Z"/><path class="cls-1" d="M35.53,62.44v5.47a2.47,2.47,0,0,1-.59,1.79,2.28,2.28,0,0,1-1.73.61,3.73,3.73,0,0,1-2.12-.59l.13-.57a4.09,4.09,0,0,0,1,.44,3.56,3.56,0,0,0,1,.13,1.61,1.61,0,0,0,1.24-.44A1.84,1.84,0,0,0,34.88,68v-1.4a1.93,1.93,0,0,1-.74.85,2.23,2.23,0,0,1-1.18.3,2.34,2.34,0,0,1-1.27-.34,2.38,2.38,0,0,1-.87-1A3.18,3.18,0,0,1,30.51,65a3.22,3.22,0,0,1,.31-1.42,2.35,2.35,0,0,1,.87-1A2.43,2.43,0,0,1,33,62.31a2.25,2.25,0,0,1,1.17.28,1.82,1.82,0,0,1,.74.83v-1Zm-1.15,4.12A2.32,2.32,0,0,0,34.87,65a2.35,2.35,0,0,0-.49-1.56,1.64,1.64,0,0,0-1.33-.57,1.7,1.7,0,0,0-1.35.57A2.3,2.3,0,0,0,31.21,65a2.25,2.25,0,0,0,.49,1.55,1.69,1.69,0,0,0,1.35.56A1.63,1.63,0,0,0,34.38,66.56Z"/><path class="cls-1" d="M38.12,60.18V61h-.88v-.85Zm-.78,2.26H38v5.45h-.65Z"/><path class="cls-1" d="M40.74,63v3.24a1.23,1.23,0,0,0,.25.9,1,1,0,0,0,.74.25,2,2,0,0,0,.59-.09v.59a2.82,2.82,0,0,1-.71.09,1.55,1.55,0,0,1-1.13-.4,1.64,1.64,0,0,1-.4-1.21V63H39v-.53h1.08V61l.66-.25v1.7h1.61V63Z"/><path class="cls-1" d="M48.1,62.44v5.45h-.66v-1a1.78,1.78,0,0,1-.72.83,2.17,2.17,0,0,1-1.16.29,2.36,2.36,0,0,1-1.28-.34,2.26,2.26,0,0,1-.85-1,3.43,3.43,0,0,1-.3-1.48,3.38,3.38,0,0,1,.31-1.5,2.33,2.33,0,0,1,.85-1,2.49,2.49,0,0,1,2.42-.07,1.8,1.8,0,0,1,.73.83v-1ZM47,66.79a3.17,3.17,0,0,0,0-3.32,1.77,1.77,0,0,0-2.66,0,2.59,2.59,0,0,0-.48,1.67,2.49,2.49,0,0,0,.48,1.63,1.64,1.64,0,0,0,1.35.58A1.58,1.58,0,0,0,47,66.79Z"/><path class="cls-1" d="M49.91,59.88h.65v8h-.65Z"/><path class="cls-1" d="M55.26,60.14H60v.58H55.93v2.93h3.89v.6H55.93v3.06H60v.58H55.26Z"/><path class="cls-1" d="M66.23,62.44A13.92,13.92,0,0,0,66.15,64v6.29h-.66v-3.4a1.74,1.74,0,0,1-.73.83,2.14,2.14,0,0,1-1.15.29,2.33,2.33,0,0,1-1.28-.34,2.26,2.26,0,0,1-.85-1,3.43,3.43,0,0,1-.3-1.48,3.52,3.52,0,0,1,.3-1.5,2.35,2.35,0,0,1,.86-1,2.48,2.48,0,0,1,2.45,0,1.79,1.79,0,0,1,.73.87l.1-1ZM65,66.79a3.17,3.17,0,0,0,0-3.32,1.79,1.79,0,0,0-2.67,0,2.65,2.65,0,0,0-.47,1.67,2.55,2.55,0,0,0,.47,1.63,1.64,1.64,0,0,0,1.35.58A1.59,1.59,0,0,0,65,66.79Z"/><path class="cls-1" d="M72.34,62.44v5.45H71.7v-1a1.89,1.89,0,0,1-.74.79,2.21,2.21,0,0,1-1.1.27,1.9,1.9,0,0,1-1.45-.53,2.3,2.3,0,0,1-.49-1.58V62.44h.66v3.37A1.83,1.83,0,0,0,68.9,67a1.25,1.25,0,0,0,1,.38,1.68,1.68,0,0,0,1.29-.5,1.88,1.88,0,0,0,.48-1.34V62.44Z"/><path class="cls-1" d="M78.77,62.44v5.45h-.66v-1a1.8,1.8,0,0,1-.73.83,2.15,2.15,0,0,1-1.16.29A2.32,2.32,0,0,1,75,67.62a2.26,2.26,0,0,1-.85-1,3.43,3.43,0,0,1-.3-1.48,3.52,3.52,0,0,1,.3-1.5,2.35,2.35,0,0,1,.86-1,2.47,2.47,0,0,1,2.41-.07,1.82,1.82,0,0,1,.74.83v-1Zm-1.13,4.35a3.17,3.17,0,0,0,0-3.32,1.79,1.79,0,0,0-2.67,0,2.59,2.59,0,0,0-.48,1.67A2.49,2.49,0,0,0,75,66.79a1.64,1.64,0,0,0,1.35.58A1.59,1.59,0,0,0,77.64,66.79Z"/><path class="cls-1" d="M80.57,59.88h.66v8h-.66Z"/><path class="cls-1" d="M83.84,60.18V61H83v-.85Zm-.79,2.26h.66v5.45h-.66Z"/><path class="cls-1" d="M86.46,63v3.24a1.23,1.23,0,0,0,.25.9,1,1,0,0,0,.74.25,2,2,0,0,0,.59-.09v.59a2.88,2.88,0,0,1-.71.09,1.55,1.55,0,0,1-1.13-.4,1.64,1.64,0,0,1-.4-1.21V63H84.72v-.53H85.8V61l.66-.25v1.7h1.61V63Z"/><path class="cls-1" d="M93.88,62.44l-2.57,6a3,3,0,0,1-1,1.31,3.66,3.66,0,0,1-1.43.6l-.13-.53A3.2,3.2,0,0,0,90,69.35a2.18,2.18,0,0,0,.67-.92l.23-.53-2.33-5.46h.7l2,4.78,2-4.78Z"/><path class="cls-1" d="M97.84,60.14h4.77v.58H98.5v2.93h3.9v.6H98.5v3.06h4.11v.58H97.84Z"/><path class="cls-1" d="M108.61,64.42v3.47h-.67V64.46a1.83,1.83,0,0,0-.33-1.2,1.32,1.32,0,0,0-1-.38,1.78,1.78,0,0,0-1.31.5,1.82,1.82,0,0,0-.5,1.35v3.16h-.66V64a13.37,13.37,0,0,0-.08-1.51h.63l.08,1a1.89,1.89,0,0,1,.75-.85,2.32,2.32,0,0,1,1.16-.28C108,62.31,108.61,63,108.61,64.42Z"/><path class="cls-1" d="M111.32,63v3.24a1.23,1.23,0,0,0,.25.9,1,1,0,0,0,.74.25,1.9,1.9,0,0,0,.58-.09v.59a2.74,2.74,0,0,1-.7.09,1.53,1.53,0,0,1-1.13-.4,1.64,1.64,0,0,1-.41-1.21V63h-1.08v-.53h1.08V61l.67-.25v1.7h1.61V63Z"/><path class="cls-1" d="M116.89,62.35l0,.6a2.34,2.34,0,0,0-.5-.05,1.46,1.46,0,0,0-1.23.53,2,2,0,0,0-.41,1.26v3.2h-.65V64a11.25,11.25,0,0,0-.09-1.51h.63l.09,1a1.68,1.68,0,0,1,.67-.85,1.86,1.86,0,0,1,1-.29A2.33,2.33,0,0,1,116.89,62.35Z"/><path class="cls-1" d="M118.09,65.08v0a2.48,2.48,0,0,0,.51,1.68,1.84,1.84,0,0,0,1.47.58,2.78,2.78,0,0,0,1.8-.67l.26.52a2.52,2.52,0,0,1-.92.54,3.42,3.42,0,0,1-1.14.2,2.6,2.6,0,0,1-2-.75,2.9,2.9,0,0,1-.71-2.07,3.22,3.22,0,0,1,.32-1.48,2.35,2.35,0,0,1,.89-1,2.47,2.47,0,0,1,1.33-.35,2.11,2.11,0,0,1,1.68.69,2.84,2.84,0,0,1,.61,1.94v.14Zm.63-1.78a2.12,2.12,0,0,0-.58,1.27h3.46a2.05,2.05,0,0,0-.49-1.28,1.58,1.58,0,0,0-1.17-.44A1.7,1.7,0,0,0,118.72,63.3Z"/><path class="cls-1" d="M127.46,62.66a2.28,2.28,0,0,1,.86,1,3.52,3.52,0,0,1,.3,1.5,3.38,3.38,0,0,1-.3,1.47,2.21,2.21,0,0,1-.85,1,2.27,2.27,0,0,1-1.27.35,2.17,2.17,0,0,1-1.17-.3,1.81,1.81,0,0,1-.73-.86v3.44h-.65V64a11.25,11.25,0,0,0-.09-1.51h.64l.08,1.06a1.84,1.84,0,0,1,.74-.88,2.14,2.14,0,0,1,1.18-.31A2.21,2.21,0,0,1,127.46,62.66Zm0,4.13a2.49,2.49,0,0,0,.48-1.63,2.59,2.59,0,0,0-.48-1.67,1.58,1.58,0,0,0-1.33-.61,1.62,1.62,0,0,0-1.34.59,3.23,3.23,0,0,0,0,3.32,1.6,1.6,0,0,0,1.33.58A1.64,1.64,0,0,0,127.45,66.79Z"/><path class="cls-1" d="M132.91,62.35l0,.6a2.41,2.41,0,0,0-.5-.05,1.47,1.47,0,0,0-1.24.53,2,2,0,0,0-.41,1.26v3.2h-.65V64a11.25,11.25,0,0,0-.09-1.51h.63l.09,1a1.68,1.68,0,0,1,.67-.85,1.89,1.89,0,0,1,1.05-.29A2.33,2.33,0,0,1,132.91,62.35Z"/><path class="cls-1" d="M134.12,65.08v0a2.48,2.48,0,0,0,.5,1.68,1.85,1.85,0,0,0,1.48.58,2.73,2.73,0,0,0,1.79-.67l.26.52a2.47,2.47,0,0,1-.91.54,3.42,3.42,0,0,1-1.14.2,2.58,2.58,0,0,1-2-.75,2.87,2.87,0,0,1-.72-2.07,3.35,3.35,0,0,1,.32-1.48,2.3,2.3,0,0,1,.9-1,2.45,2.45,0,0,1,1.33-.35,2.14,2.14,0,0,1,1.68.69,2.89,2.89,0,0,1,.6,1.94v.14Zm.63-1.78a2.08,2.08,0,0,0-.59,1.27h3.46a2,2,0,0,0-.49-1.28,1.54,1.54,0,0,0-1.16-.44A1.69,1.69,0,0,0,134.75,63.3Z"/><path class="cls-1" d="M144.18,64.42v3.47h-.67V64.46a1.83,1.83,0,0,0-.33-1.2,1.31,1.31,0,0,0-1-.38,1.78,1.78,0,0,0-1.31.5,1.82,1.82,0,0,0-.5,1.35v3.16h-.66V64a11.38,11.38,0,0,0-.08-1.51h.63l.09,1a1.78,1.78,0,0,1,.75-.85,2.25,2.25,0,0,1,1.15-.28C143.52,62.31,144.18,63,144.18,64.42Z"/><path class="cls-1" d="M146.31,65.08v0a2.48,2.48,0,0,0,.51,1.68,1.82,1.82,0,0,0,1.47.58,2.78,2.78,0,0,0,1.8-.67l.26.52a2.52,2.52,0,0,1-.92.54,3.42,3.42,0,0,1-1.14.2,2.58,2.58,0,0,1-2-.75,2.87,2.87,0,0,1-.72-2.07,3.35,3.35,0,0,1,.32-1.48,2.43,2.43,0,0,1,.9-1,2.47,2.47,0,0,1,1.33-.35,2.11,2.11,0,0,1,1.68.69,2.89,2.89,0,0,1,.6,1.94v.14Zm.63-1.78a2.13,2.13,0,0,0-.59,1.27h3.46a2,2,0,0,0-.49-1.28,1.54,1.54,0,0,0-1.16-.44A1.69,1.69,0,0,0,146.94,63.3Z"/><path class="cls-1" d="M156.25,62.44v5.45h-.64v-1a1.83,1.83,0,0,1-.74.79,2.19,2.19,0,0,1-1.1.27,1.86,1.86,0,0,1-1.44-.53,2.25,2.25,0,0,1-.49-1.58V62.44h.65v3.37a1.77,1.77,0,0,0,.33,1.18,1.22,1.22,0,0,0,1,.38,1.67,1.67,0,0,0,1.28-.5,1.88,1.88,0,0,0,.48-1.34V62.44Z"/><path class="cls-1" d="M160.89,62.35l0,.6a2.27,2.27,0,0,0-.5-.05,1.46,1.46,0,0,0-1.23.53,2,2,0,0,0-.41,1.26v3.2h-.65V64a11.25,11.25,0,0,0-.09-1.51h.63l.09,1a1.68,1.68,0,0,1,.67-.85,1.89,1.89,0,0,1,1-.29A2.33,2.33,0,0,1,160.89,62.35Z"/><path class="cls-1" d="M161.47,67.23l.24-.51a2.79,2.79,0,0,0,1.9.67,1.79,1.79,0,0,0,1-.24.75.75,0,0,0,.36-.68.74.74,0,0,0-.24-.58,1.69,1.69,0,0,0-.76-.34l-.93-.21a2,2,0,0,1-1-.54,1.28,1.28,0,0,1-.37-.92,1.35,1.35,0,0,1,.55-1.14,2.27,2.27,0,0,1,1.46-.43,3.08,3.08,0,0,1,1.07.18,2,2,0,0,1,.82.53l-.25.51a2.46,2.46,0,0,0-1.64-.65,1.71,1.71,0,0,0-1,.25.88.88,0,0,0-.12,1.3,1.39,1.39,0,0,0,.69.33l.93.23c1,.22,1.47.7,1.47,1.45a1.31,1.31,0,0,1-.56,1.1,2.52,2.52,0,0,1-1.53.42A2.94,2.94,0,0,1,161.47,67.23Z"/><path class="cls-1" d="M171.68,64.42v3.47H171V64.46a1.83,1.83,0,0,0-.33-1.2,1.32,1.32,0,0,0-1-.38,1.78,1.78,0,0,0-1.31.5,1.82,1.82,0,0,0-.5,1.35v3.16h-.66v-8h.66v3.5a1.76,1.76,0,0,1,.75-.8,2.28,2.28,0,0,1,1.13-.27C171,62.31,171.68,63,171.68,64.42Z"/><path class="cls-1" d="M174.24,60.18V61h-.88v-.85Zm-.78,2.26h.65v5.45h-.65Z"/><path class="cls-1" d="M179.75,62.66a2.28,2.28,0,0,1,.86,1,3.52,3.52,0,0,1,.3,1.5,3.38,3.38,0,0,1-.3,1.47,2.21,2.21,0,0,1-.85,1,2.27,2.27,0,0,1-1.27.35,2.17,2.17,0,0,1-1.17-.3,1.81,1.81,0,0,1-.73-.86v3.44h-.65V64a11.25,11.25,0,0,0-.09-1.51h.64l.08,1.06a1.84,1.84,0,0,1,.74-.88,2.14,2.14,0,0,1,1.18-.31A2.21,2.21,0,0,1,179.75,62.66Zm0,4.13a2.49,2.49,0,0,0,.48-1.63,2.59,2.59,0,0,0-.48-1.67,1.58,1.58,0,0,0-1.33-.61,1.63,1.63,0,0,0-1.34.59,3.23,3.23,0,0,0,0,3.32,1.62,1.62,0,0,0,1.33.58A1.64,1.64,0,0,0,179.74,66.79Z"/><path class="cls-1" d="M185.24,60.14h3a2.71,2.71,0,0,1,1.83.57,1.92,1.92,0,0,1,.66,1.55,2,2,0,0,1-.66,1.57,2.75,2.75,0,0,1-1.83.57h-2.3v3.49h-.68Zm2.94,3.68a2.1,2.1,0,0,0,1.38-.4,1.46,1.46,0,0,0,.47-1.16,1.43,1.43,0,0,0-.47-1.14,2,2,0,0,0-1.38-.4h-2.26v3.1Z"/><path class="cls-1" d="M194.87,62.35l0,.6a2.41,2.41,0,0,0-.5-.05,1.47,1.47,0,0,0-1.24.53,2,2,0,0,0-.41,1.26v3.2H192V64a11.25,11.25,0,0,0-.09-1.51h.63l.09,1a1.68,1.68,0,0,1,.67-.85,1.89,1.89,0,0,1,1-.29A2.33,2.33,0,0,1,194.87,62.35Z"/><path class="cls-1" d="M196.57,67.61a2.3,2.3,0,0,1-.88-1,3.31,3.31,0,0,1-.31-1.49,3.36,3.36,0,0,1,.31-1.49,2.42,2.42,0,0,1,.88-1,2.5,2.5,0,0,1,1.32-.34,2.46,2.46,0,0,1,1.31.34,2.33,2.33,0,0,1,.87,1,3.36,3.36,0,0,1,.31,1.49,3.31,3.31,0,0,1-.31,1.49,2.22,2.22,0,0,1-.87,1,2.38,2.38,0,0,1-1.31.35A2.41,2.41,0,0,1,196.57,67.61Zm2.66-.82a3.14,3.14,0,0,0,0-3.32,1.63,1.63,0,0,0-1.33-.59,1.65,1.65,0,0,0-1.34.59,2.64,2.64,0,0,0-.47,1.66,2.62,2.62,0,0,0,.46,1.67,1.86,1.86,0,0,0,2.69,0Z"/><path class="cls-1" d="M206.51,62.44v5.47a2.47,2.47,0,0,1-.59,1.79,2.28,2.28,0,0,1-1.73.61,3.73,3.73,0,0,1-2.12-.59l.13-.57a4.09,4.09,0,0,0,1,.44,3.56,3.56,0,0,0,1,.13,1.61,1.61,0,0,0,1.24-.44,1.84,1.84,0,0,0,.42-1.31v-1.4a1.93,1.93,0,0,1-.74.85,2.23,2.23,0,0,1-1.18.3,2.34,2.34,0,0,1-1.27-.34,2.38,2.38,0,0,1-.87-1,3.18,3.18,0,0,1-.31-1.41,3.22,3.22,0,0,1,.31-1.42,2.35,2.35,0,0,1,.87-1,2.43,2.43,0,0,1,1.27-.33,2.25,2.25,0,0,1,1.17.28,1.75,1.75,0,0,1,.73.83v-1Zm-1.15,4.12a2.32,2.32,0,0,0,.48-1.55,2.35,2.35,0,0,0-.48-1.56,1.65,1.65,0,0,0-1.33-.57,1.7,1.7,0,0,0-1.35.57,2.3,2.3,0,0,0-.49,1.56,2.25,2.25,0,0,0,.49,1.55,1.69,1.69,0,0,0,1.35.56A1.65,1.65,0,0,0,205.36,66.56Z"/><path class="cls-1" d="M211.14,62.35l0,.6a2.41,2.41,0,0,0-.5-.05,1.49,1.49,0,0,0-1.24.53,2,2,0,0,0-.4,1.26v3.2h-.66V64a13.37,13.37,0,0,0-.08-1.51h.63l.08,1a1.73,1.73,0,0,1,.67-.85,1.89,1.89,0,0,1,1-.29A2.33,2.33,0,0,1,211.14,62.35Z"/><path class="cls-1" d="M216.62,62.44v5.45H216v-1a1.78,1.78,0,0,1-.72.83,2.15,2.15,0,0,1-1.16.29,2.36,2.36,0,0,1-1.28-.34,2.26,2.26,0,0,1-.85-1,3.43,3.43,0,0,1-.3-1.48,3.52,3.52,0,0,1,.31-1.5,2.33,2.33,0,0,1,.85-1,2.49,2.49,0,0,1,2.42-.07,1.8,1.8,0,0,1,.73.83v-1Zm-1.13,4.35a3.17,3.17,0,0,0,0-3.32,1.77,1.77,0,0,0-2.66,0,2.59,2.59,0,0,0-.48,1.67,2.49,2.49,0,0,0,.48,1.63,1.64,1.64,0,0,0,1.35.58A1.58,1.58,0,0,0,215.49,66.79Z"/><path class="cls-1" d="M226.11,64.42v3.47h-.66V64.46a1.92,1.92,0,0,0-.3-1.2,1.1,1.1,0,0,0-.93-.38,1.48,1.48,0,0,0-1.18.5,2,2,0,0,0-.43,1.36v3.15h-.67V64.46a1.92,1.92,0,0,0-.3-1.2,1.12,1.12,0,0,0-.94-.38,1.52,1.52,0,0,0-1.18.5,2,2,0,0,0-.44,1.36v3.15h-.65V64a11.25,11.25,0,0,0-.09-1.51H219l.09,1a1.71,1.71,0,0,1,.68-.83,1.92,1.92,0,0,1,1-.28,1.59,1.59,0,0,1,1.69,1.06,1.73,1.73,0,0,1,.71-.78,2.13,2.13,0,0,1,1.11-.28C225.51,62.31,226.11,63,226.11,64.42Z"/><path class="cls-1" d="M0,0H20.66A32.11,32.11,0,0,1,35.1,3a21.33,21.33,0,0,1,9.3,8.69A26.8,26.8,0,0,1,47.63,25.2a27.43,27.43,0,0,1-3.19,13.6,21.1,21.1,0,0,1-9.26,8.73,32.35,32.35,0,0,1-14.52,3H0ZM19.74,39.9q7.38,0,11-3.66t3.66-11q0-14.55-14.69-14.55H13.35V39.9Z"/><path class="cls-1" d="M54,52V0h37.1V10.52H67.35V20.3h22.2V30.82H67.35V41.48H91.08V52Z"/><path class="cls-1" d="M95.35,50.55V0h36.07V10.22H108.34v9.52h21.58V30H108.34V40.32h23.08V50.55Z"/><path class="cls-1" d="M138.23,0H162.3Q171,0,175.71,4.15t4.76,11.26a14.09,14.09,0,0,1-4.83,11.21q-4.83,4.18-13.34,4.19H151.58V50.55H138.23Zm22.29,20.87q7.53,0,7.53-5.32a4.86,4.86,0,0,0-1.81-4.09q-1.81-1.38-5.72-1.38h-8.94V20.87Z"/><polygon class="cls-1" points="13.36 62.94 13.36 58.95 8.15 58.95 13.36 62.94"/><polygon class="cls-1" points="8.15 69.17 13.36 69.17 13.36 65.18 8.15 69.17"/><rect class="cls-1" y="58.95" width="4.54" height="10.22"/></g></g></svg>